<svg xmlns="http://www.w3.org/2000/svg" viewBox="0 0 24 24" fill="none" stroke="currentColor" stroke-width="1.5" stroke-linecap="round" stroke-linejoin="round">
  <path d="M12 .5C5.73.5.5 5.73.5 12c0 5.08 3.29 9.39 7.86 10.91.58.11.79-.25.79-.56 0-.28-.01-1.02-.02-2-3.2.7-3.88-1.54-3.88-1.54-.53-1.36-1.29-1.72-1.29-1.72-1.05-.72.08-.71.08-.71 1.16.08 1.77 1.19 1.77 1.19 1.03 1.77 2.7 1.26 3.36.96.1-.75.4-1.26.72-1.55-2.56-.29-5.26-1.28-5.26-5.7 0-1.26.45-2.29 1.19-3.1-.12-.29-.52-1.47.11-3.06 0 0 .97-.31 3.18 1.18a11.06 11.06 0 0 1 5.79 0c2.21-1.49 3.18-1.18 3.18-1.18.63 1.59.23 2.77.11 3.06.74.81 1.19 1.84 1.19 3.1 0 4.43-2.7 5.4-5.28 5.69.41.36.77 1.08.77 2.18 0 1.57-.01 2.84-.01 3.22 0 .31.21.68.8.56C20.71 21.39 24 17.08 24 12 24 5.73 18.27.5 12 .5z" fill="#ffffff" stroke="#0a0a0a"/>
</svg>